<svg xmlns="http://www.w3.org/2000/svg" width="256" height="256" viewBox="0 0 256 256">
  <rect x="0" y="0" width="256" height="256" rx="58" fill="#2D1F6E"/>
  <!-- Vertical stem -->
  <rect x="122" y="44" width="12" height="36" rx="5" fill="none" stroke="#A99EE8" stroke-width="2.5"/>
  <!-- Crossbar -->
  <rect x="72" y="76" width="112" height="10" rx="5" fill="none" stroke="#A99EE8" stroke-width="2.5"/>
  <!-- Knuckle dots -->
  <circle cx="98"  cy="81" r="4.5" fill="#A99EE8" opacity="0.75"/>
  <circle cx="128" cy="81" r="4.5" fill="#A99EE8" opacity="0.75"/>
  <circle cx="158" cy="81" r="4.5" fill="#A99EE8" opacity="0.75"/>
  <!-- Strings -->
  <line x1="98"  y1="87" x2="86"  y2="140" stroke="#7F77DD" stroke-width="1.5" opacity="0.65"/>
  <line x1="128" y1="87" x2="128" y2="136" stroke="#7F77DD" stroke-width="1.5" opacity="0.65"/>
  <line x1="158" y1="87" x2="170" y2="140" stroke="#7F77DD" stroke-width="1.5" opacity="0.65"/>
  <!-- Agent left -->
  <rect x="58" y="142" width="58" height="44" rx="9" fill="#4A3BAA" stroke="#7F77DD" stroke-width="1.5"/>
  <rect x="68" y="154" width="22" height="4" rx="2" fill="#A99EE8" opacity="0.8"/>
  <rect x="68" y="163" width="34" height="4" rx="2" fill="#A99EE8" opacity="0.5"/>
  <rect x="68" y="172" width="28" height="4" rx="2" fill="#A99EE8" opacity="0.5"/>
  <!-- Agent center (main) -->
  <rect x="99" y="138" width="58" height="52" rx="10" fill="#4A3BAA" stroke="#9D94E8" stroke-width="2"/>
  <rect x="108" y="152" width="5" height="18" rx="2" fill="#A99EE8" opacity="0.45"/>
  <rect x="116" y="147" width="5" height="23" rx="2" fill="#A99EE8" opacity="0.6"/>
  <rect x="124" y="155" width="5" height="15" rx="2" fill="#A99EE8" opacity="0.45"/>
  <rect x="132" y="143" width="5" height="27" rx="2" fill="#FFFFFF" opacity="0.9"/>
  <rect x="140" y="150" width="5" height="20" rx="2" fill="#A99EE8" opacity="0.6"/>
  <rect x="148" y="157" width="5" height="13" rx="2" fill="#A99EE8" opacity="0.45"/>
  <!-- Agent right -->
  <rect x="140" y="142" width="58" height="44" rx="9" fill="#4A3BAA" stroke="#7F77DD" stroke-width="1.5"/>
  <rect x="150" y="154" width="34" height="4" rx="2" fill="#A99EE8" opacity="0.8"/>
  <rect x="150" y="163" width="24" height="4" rx="2" fill="#A99EE8" opacity="0.5"/>
  <rect x="150" y="172" width="30" height="4" rx="2" fill="#A99EE8" opacity="0.5"/>
</svg>
