<svg xmlns="http://www.w3.org/2000/svg" width="64" height="64" viewBox="0 0 64 64">
  <rect x="0" y="0" width="64" height="64" rx="14" fill="#2D1F6E"/>
  <!-- Vertical stem -->
  <rect x="30" y="8" width="4" height="14" rx="2" fill="none" stroke="#A99EE8" stroke-width="1.2"/>
  <!-- Crossbar -->
  <rect x="14" y="20" width="36" height="4" rx="2" fill="none" stroke="#A99EE8" stroke-width="1.2"/>
  <!-- Knuckle dots -->
  <circle cx="22" cy="22" r="1.8" fill="#A99EE8" opacity="0.75"/>
  <circle cx="32" cy="22" r="1.8" fill="#A99EE8" opacity="0.75"/>
  <circle cx="42" cy="22" r="1.8" fill="#A99EE8" opacity="0.75"/>
  <!-- Strings -->
  <line x1="22" y1="25" x2="19" y2="36" stroke="#7F77DD" stroke-width="0.8" opacity="0.65"/>
  <line x1="32" y1="25" x2="32" y2="34" stroke="#7F77DD" stroke-width="0.8" opacity="0.65"/>
  <line x1="42" y1="25" x2="45" y2="36" stroke="#7F77DD" stroke-width="0.8" opacity="0.65"/>
  <!-- Agent left -->
  <rect x="11" y="37" width="16" height="12" rx="3" fill="#4A3BAA" stroke="#7F77DD" stroke-width="0.8"/>
  <rect x="14" y="40" width="6"  height="2" rx="1" fill="#A99EE8" opacity="0.8"/>
  <rect x="14" y="44" width="9"  height="2" rx="1" fill="#A99EE8" opacity="0.5"/>
  <!-- Agent center -->
  <rect x="24" y="35" width="16" height="14" rx="3" fill="#4A3BAA" stroke="#9D94E8" stroke-width="1"/>
  <rect x="27" y="39" width="2"  height="6" rx="1" fill="#A99EE8" opacity="0.45"/>
  <rect x="30" y="37" width="2"  height="8" rx="1" fill="#FFFFFF"  opacity="0.9"/>
  <rect x="33" y="40" width="2"  height="5" rx="1" fill="#A99EE8" opacity="0.6"/>
  <rect x="36" y="38" width="2"  height="7" rx="1" fill="#A99EE8" opacity="0.45"/>
  <!-- Agent right -->
  <rect x="37" y="37" width="16" height="12" rx="3" fill="#4A3BAA" stroke="#7F77DD" stroke-width="0.8"/>
  <rect x="40" y="40" width="9"  height="2" rx="1" fill="#A99EE8" opacity="0.8"/>
  <rect x="40" y="44" width="6"  height="2" rx="1" fill="#A99EE8" opacity="0.5"/>
</svg>
